<?xml version="1.0" encoding="utf-8"?>
<!-- Generator: Adobe Illustrator 21.0.2, SVG Export Plug-In . SVG Version: 6.00 Build 0)  -->
<svg version="1.1" id="Camada_1" xmlns="http://www.w3.org/2000/svg" xmlns:xlink="http://www.w3.org/1999/xlink" x="0px" y="0px"
	 viewBox="0 0 305 510" style="enable-background:new 0 0 305 510;" xml:space="preserve">
<style type="text/css">
	.st0{clip-path:url(#SVGID_2_);fill:#B2B2B2;}
	.st1{fill:#B2B2B2;}
	.st2{clip-path:url(#SVGID_4_);fill:#B2B2B2;}
</style>
<g>
	<defs>
		<rect id="SVGID_1_" width="305" height="510"/>
	</defs>
	<clipPath id="SVGID_2_">
		<use xlink:href="#SVGID_1_"  style="overflow:visible;"/>
	</clipPath>
	<path class="st0" d="M304,507.2V47.9c-0.8-25.3-20.9-45.1-45.7-45.1H45.9C21.2,2.8,1,23.1,1,48v459.2h1.4V48
		c0-24.1,19.5-43.8,43.5-43.8h212.3c24.1,0,43.5,19.2,44.3,43.8v459.2H304z"/>
</g>
<polygon class="st1" points="287.3,507.2 287.3,79.2 18,79.2 18,507.2 19.4,507.2 19.4,80.6 285.9,80.6 285.9,507.2 "/>
<g>
	<defs>
		<rect id="SVGID_3_" width="305" height="510"/>
	</defs>
	<clipPath id="SVGID_4_">
		<use xlink:href="#SVGID_3_"  style="overflow:visible;"/>
	</clipPath>
	<path class="st2" d="M131.7,39.2c-1.5,0-2.6,1.2-2.6,2.6c0,1.5,1.2,2.6,2.6,2.6h41.6c1.5,0,2.6-1.2,2.6-2.6c0-1.5-1.2-2.6-2.6-2.6
		H131.7z M173.3,45.9h-41.6c-2.2,0-4-1.8-4-4c0-2.2,1.8-4,4-4h41.6c2.2,0,4,1.8,4,4C177.3,44.1,175.5,45.9,173.3,45.9"/>
</g>
</svg>
